# xmcd
#
# Track frame offsets:
# 150
# 11806
# 28814
# 40354
# 56569
# 72862
# 89298
# 108350
# 119459
# 132731
# 149248
#
# Disc length: 2227 seconds
#
#
# Revision: 0
# Processed by: cddbd v1.5.1PL0 Copyright (c) Steve Scherf et al.
# Submitted via: FreeRIP 2.70 
#
DISCID=aa08b10b
DTITLE=The Beatles - Let It Be .NAKED
DYEAR=1900
DGENRE=
TTITLE0=Get Back
TTITLE1=Dig a pony
TTITLE2=For you blue
TTITLE3=The long and winding road
TTITLE4=Two of us
TTITLE5=I've got a feeling
TTITLE6=One after 909
TTITLE7=Don't let me down
TTITLE8=I me mine
TTITLE9=Across the universe
TTITLE10=Let it be
EXTD=
EXTT0=
EXTT1=
EXTT2=
EXTT3=
EXTT4=
EXTT5=
EXTT6=
EXTT7=
EXTT8=
EXTT9=
EXTT10=
PLAYORDER=
